<svg width="36" height="35" viewBox="0 0 36 35" fill="none" xmlns="http://www.w3.org/2000/svg">
<path d="M0.5 0V20H35.5V0H0.5ZM6.76953 5H29.2305C30.9209 4.976 30.9209 7.52391 29.2305 7.5H6.76953C5.07913 7.524 5.07913 4.97609 6.76953 5ZM6.76953 12.5H29.2305C30.9209 12.476 30.9209 15.0239 29.2305 15H6.76953C5.07913 15.024 5.07913 12.4761 6.76953 12.5Z" fill="white"/>
<path d="M6.76955 25C6.60391 24.9977 6.43948 25.0283 6.28577 25.09C6.13206 25.1518 5.99212 25.2435 5.87416 25.3598C5.7562 25.4761 5.66252 25.6147 5.59859 25.7675C5.53465 25.9203 5.50177 26.0843 5.50177 26.25C5.50177 26.4157 5.53465 26.5797 5.59859 26.7325C5.66252 26.8853 5.7562 27.0239 5.87416 27.1402C5.99212 27.2565 6.13206 27.3482 6.28577 27.41C6.43948 27.4717 6.60391 27.5023 6.76955 27.5H29.2305C29.3961 27.5023 29.5606 27.4717 29.7143 27.41C29.868 27.3482 30.0079 27.2565 30.1259 27.1402C30.2438 27.0239 30.3375 26.8853 30.4014 26.7325C30.4654 26.5797 30.4983 26.4157 30.4983 26.25C30.4983 26.0843 30.4654 25.9203 30.4014 25.7675C30.3375 25.6147 30.2438 25.4761 30.1259 25.3598C30.0079 25.2435 29.868 25.1518 29.7143 25.09C29.5606 25.0283 29.3961 24.9977 29.2305 25H6.76955ZM6.76955 32.5C6.60391 32.4977 6.43948 32.5283 6.28577 32.59C6.13206 32.6518 5.99212 32.7435 5.87416 32.8598C5.7562 32.9761 5.66252 33.1147 5.59859 33.2675C5.53465 33.4203 5.50177 33.5843 5.50177 33.75C5.50177 33.9157 5.53465 34.0797 5.59859 34.2325C5.66252 34.3853 5.7562 34.5239 5.87416 34.6402C5.99212 34.7565 6.13206 34.8482 6.28577 34.91C6.43948 34.9717 6.60391 35.0023 6.76955 35H29.2305C29.3961 35.0023 29.5606 34.9717 29.7143 34.91C29.868 34.8482 30.0079 34.7565 30.1259 34.6402C30.2438 34.5239 30.3375 34.3853 30.4014 34.2325C30.4654 34.0797 30.4983 33.9157 30.4983 33.75C30.4983 33.5843 30.4654 33.4203 30.4014 33.2675C30.3375 33.1147 30.2438 32.9761 30.1259 32.8598C30.0079 32.7435 29.868 32.6518 29.7143 32.59C29.5606 32.5283 29.3961 32.4977 29.2305 32.5H6.76955Z" fill="white"/>
</svg>
