<svg width="36" height="35" viewBox="0 0 36 35" fill="none" xmlns="http://www.w3.org/2000/svg">
<path d="M11.75 0C11.0597 7.5e-05 10.5001 0.559675 10.5 1.25V3.75C10.5001 4.0815 10.6318 4.39939 10.8662 4.63379L13 6.76758V13.3057L2.03322 26.709L2.02315 26.719C0.550923 28.5592 0.253477 30.6444 0.900102 32.261C1.5467 33.8775 3.10389 35.0002 4.87471 35.0002H31.1247C32.8955 35.0002 34.467 33.8919 35.1335 32.2707C35.7989 30.6523 35.4927 28.5466 33.9665 26.7092L23 13.3057V6.76758L25.1338 4.63379C25.3683 4.39929 25.5 4.0815 25.5 3.75V1.25C25.4999 0.559675 24.9403 7.5e-05 24.25 0H11.75ZM13 2.5H23V3.23242L20.8662 5.36621C20.6317 5.60071 20.5001 5.9185 20.5 6.25V13.75C20.5003 14.0385 20.6005 14.3179 20.7832 14.541L32.0332 28.291L32.0383 28.301C33.1095 29.5865 33.1166 30.6009 32.8195 31.3235C32.5222 32.0455 31.8542 32.5 31.125 32.5H4.87502C4.14584 32.5 3.51553 32.0602 3.22463 31.333C2.93375 30.6058 2.9488 29.566 3.97658 28.2812L15.2168 14.541C15.3996 14.318 15.4997 14.0385 15.5 13.75V6.25C15.5 5.9185 15.3683 5.60061 15.1338 5.36621L13 3.23242V2.5ZM13 22.5C12.6393 22.499 12.2958 22.654 12.0576 22.9248L7.68263 27.9248C6.97198 28.7337 7.54839 30.0028 8.62502 30H27.375C28.4517 30.0025 29.028 28.7337 28.3174 27.9248L23.9424 22.9248C23.7043 22.6539 23.3607 22.499 23 22.5H13Z" fill="white"/>
</svg>
