<svg width="38" height="36" viewBox="0 0 38 36" fill="none" xmlns="http://www.w3.org/2000/svg">
<path d="M7.7594 0.548767C11.8867 0.548767 15.2594 3.92144 15.2594 8.04877C15.2594 12.1761 11.8867 15.5488 7.7594 15.5488C3.63207 15.5488 0.259399 12.1761 0.259399 8.04877C0.259399 3.92144 3.63207 0.548767 7.7594 0.548767Z" fill="white"/>
<path d="M29.5777 10.6674C33.7051 10.6674 37.0777 14.0401 37.0777 18.1674C37.0777 22.2947 33.7051 25.6674 29.5777 25.6674C25.4504 25.6674 22.0777 22.2947 22.0777 18.1674C22.0777 14.0401 25.4504 10.6674 29.5777 10.6674Z" fill="white"/>
<path d="M11.2377 20.1536C15.365 20.1536 18.7377 23.5263 18.7377 27.6536C18.7377 31.781 15.365 35.1536 11.2377 35.1536C7.11036 35.1536 3.73769 31.781 3.73769 27.6536C3.73769 23.5263 7.11036 20.1536 11.2377 20.1536Z" fill="white"/>
</svg>
