<svg width="37" height="36" viewBox="0 0 37 36" fill="none" xmlns="http://www.w3.org/2000/svg">
<path d="M29.7865 10.0049C29.5348 9.99697 29.2866 10.0652 29.0743 10.2008C28.8621 10.3363 28.6957 10.5328 28.597 10.7645C28.4984 10.9962 28.4719 11.2522 28.5212 11.4992C28.5706 11.7461 28.6933 11.9724 28.8734 12.1484L31.7396 15.0147H17.7748C16.9043 13.5308 15.3059 12.5147 13.473 12.5147C10.7264 12.5147 8.47302 14.768 8.47302 17.5147C8.47302 20.2613 10.7264 22.5147 13.473 22.5147C16.2196 22.5147 18.473 20.2613 18.473 17.5147H31.7396L28.8734 20.3809C28.639 20.6159 28.5076 20.9344 28.5081 21.2663C28.5086 21.5983 28.6409 21.9164 28.8759 22.1508C29.111 22.3852 29.4295 22.5166 29.7614 22.5162C30.0933 22.5157 30.4115 22.3835 30.6459 22.1484L35.6459 17.1484C35.8802 16.914 36.0119 16.5961 36.0119 16.2647C36.0119 15.9332 35.8802 15.6153 35.6459 15.3809L30.6459 10.3809C30.4191 10.1487 30.1109 10.0139 29.7865 10.0049ZM13.473 15.0147C14.8685 15.0147 15.973 16.1191 15.973 17.5147C15.973 18.9102 14.8685 20.0147 13.473 20.0147C12.0775 20.0147 10.973 18.9102 10.973 17.5147C10.973 16.1191 12.0775 15.0147 13.473 15.0147Z" fill="white"/>
<g opacity="0.6">
<path d="M23.491 12.4999L23.4813 1.24503C23.4813 1.08006 23.4486 0.916671 23.3851 0.764381C23.3217 0.612091 23.2288 0.473932 23.1117 0.357734C22.9946 0.241535 22.8555 0.149595 22.7028 0.0873481C22.55 0.0251017 22.3865 -0.00624105 22.2215 -0.00496758L19.7166 0.0150214C19.6043 0.0162752 19.4926 0.032751 19.3846 0.0638496L1.88947 5.04432C1.62818 5.11862 1.39827 5.27597 1.23441 5.49262C1.07054 5.70928 0.981628 5.97339 0.981262 6.24503V33.745C0.981285 34.0749 1.11166 34.3913 1.34396 34.6255C1.57627 34.8596 1.89168 34.9924 2.2215 34.995L4.71661 35.0201C4.83553 35.0206 4.9539 35.0041 5.06818 34.9712L22.5731 29.9567C22.8345 29.8824 23.0647 29.7247 23.2286 29.5078C23.3925 29.2909 23.4811 29.0266 23.4813 28.7548L23.4913 19.9999H20.9913L20.9813 27.8124L4.55548 32.5146L3.48126 32.5095V7.19215L19.9022 2.51441L20.9813 2.50449L20.9913 12.4995L23.491 12.4999Z" fill="white"/>
</g>
</svg>
