<svg width="35" height="35" viewBox="0 0 35 35" fill="none" xmlns="http://www.w3.org/2000/svg">
  <!-- Main link icon -->
  <path d="M26.4258 0.0440815C24.4311 -0.0509185 22.4964 0.736193 21.0254 2.20717L17.3096 5.92787C15.7702 7.3662 14.9738 9.31304 15.0781 11.3136C15.0801 11.4819 15.1161 11.648 15.1838 11.802C15.2515 11.9561 15.3497 12.0949 15.4723 12.2101C15.595 12.3253 15.7396 12.4146 15.8976 12.4725C16.0556 12.5305 16.2237 12.5558 16.3917 12.5473C16.5598 12.5387 16.7244 12.4963 16.8757 12.4226C17.0269 12.3489 17.1618 12.2456 17.2721 12.1185C17.3824 11.9915 17.466 11.8433 17.5177 11.6832C17.5695 11.5231 17.5884 11.3543 17.5733 11.1867C17.5061 9.89928 17.9624 8.73627 19.0137 7.75404C19.0236 7.74445 19.0334 7.73466 19.043 7.72475L22.793 3.97475C23.822 2.94572 25.0171 2.47795 26.3037 2.5392C27.5903 2.60045 29.0147 3.21402 30.4004 4.59975C31.7874 5.98675 32.4243 7.43838 32.4951 8.73061C32.566 10.0228 32.1141 11.1926 31.0596 12.1779C31.048 12.1874 31.0366 12.1972 31.0254 12.2072L27.2754 15.9572C26.2451 16.9875 25.0831 17.466 23.7842 17.466C23.6186 17.4636 23.4541 17.4942 23.3004 17.556C23.1467 17.6178 23.0068 17.7095 22.8888 17.8258C22.7709 17.9421 22.6772 18.0807 22.6133 18.2335C22.5493 18.3863 22.5164 18.5503 22.5164 18.716C22.5164 18.8816 22.5493 19.0456 22.6133 19.1984C22.6772 19.3513 22.7709 19.4898 22.8888 19.6062C23.0068 19.7225 23.1467 19.8142 23.3004 19.8759C23.4541 19.9377 23.6186 19.9683 23.7842 19.966C25.7359 19.966 27.5965 19.1713 29.043 17.7247L32.7637 14.004C34.3079 12.5613 35.1052 10.6009 34.9951 8.59389C34.8851 6.58686 33.906 4.57019 32.168 2.83217C30.4287 1.09289 28.4205 0.139057 26.4258 0.0440815ZM23.7256 9.99037C23.4012 9.9994 23.093 10.1342 22.8662 10.3663L10.3662 22.8663C10.2463 22.9815 10.1506 23.1194 10.0847 23.2721C10.0188 23.4247 9.98394 23.5891 9.98227 23.7553C9.98061 23.9216 10.0121 24.0865 10.075 24.2404C10.1378 24.3943 10.2308 24.5342 10.3484 24.6518C10.4659 24.7694 10.6058 24.8624 10.7597 24.9252C10.9136 24.9881 11.0786 25.0195 11.2448 25.0178C11.4111 25.0162 11.5753 24.9814 11.728 24.9155C11.8806 24.8495 12.0186 24.7538 12.1338 24.6339L24.6338 12.1339C24.8136 11.9582 24.9361 11.7324 24.9856 11.4859C25.035 11.2394 25.009 10.9839 24.911 10.7524C24.8129 10.5209 24.6473 10.3244 24.4359 10.1884C24.2244 10.0525 23.9769 9.98347 23.7256 9.99037ZM11.4014 15.0441C9.38257 14.9236 7.41288 15.7177 5.96193 17.2706L2.24122 20.9913C0.770253 22.4623 -0.0168481 24.3922 0.0781369 26.3869C0.173112 28.3815 1.12695 30.3946 2.86622 32.1339C4.60424 33.8719 6.6258 34.8461 8.63282 34.9562C10.6398 35.0662 12.5953 34.2738 14.0381 32.7296L17.7588 29.0089C19.2053 27.5624 20 25.7018 20 23.7501C20.0024 23.5845 19.9718 23.42 19.91 23.2663C19.8482 23.1126 19.7565 22.9727 19.6402 22.8548C19.5239 22.7368 19.3853 22.6431 19.2325 22.5792C19.0797 22.5152 18.9157 22.4823 18.75 22.4823C18.5844 22.4823 18.4204 22.5152 18.2675 22.5792C18.1147 22.6431 17.9761 22.7368 17.8598 22.8548C17.7435 22.9727 17.6518 23.1126 17.59 23.2663C17.5283 23.42 17.4977 23.5845 17.5 23.7501C17.5 25.049 17.0215 26.211 15.9912 27.2413L12.2412 30.9913C12.2313 31.0009 12.2215 31.0107 12.2119 31.0206C11.2267 32.0752 10.0618 32.5319 8.76954 32.4611C7.47733 32.3903 6.02079 31.7533 4.6338 30.3663C3.24808 28.9806 2.6394 27.5562 2.57814 26.2697C2.51686 24.9831 2.97977 23.788 4.0088 22.7589L7.7588 19.0089C7.76873 18.9993 7.77849 18.9895 7.7881 18.9796C8.77895 17.9191 9.9538 17.4615 11.2549 17.5392C11.4212 17.5533 11.5887 17.5341 11.7474 17.4824C11.9061 17.4308 12.0529 17.3479 12.1791 17.2386C12.3053 17.1293 12.4083 16.9959 12.4821 16.8461C12.5559 16.6964 12.5989 16.5335 12.6087 16.3669C12.6185 16.2002 12.5948 16.0333 12.5391 15.876C12.4833 15.7187 12.3966 15.574 12.2841 15.4507C12.1715 15.3274 12.0355 15.2279 11.8839 15.1581C11.7323 15.0882 11.5682 15.0495 11.4014 15.0441Z" fill="white"/>

  <!-- Journey map overlay in bottom right corner -->
  <g transform="translate(16, 16) scale(0.65)">
    <!-- Journey map icon content -->
    <path d="M29.7865 10.0049C29.5348 9.99697 29.2866 10.0652 29.0743 10.2008C28.8621 10.3363 28.6957 10.5328 28.597 10.7645C28.4984 10.9962 28.4719 11.2522 28.5212 11.4992C28.5706 11.7461 28.6933 11.9724 28.8734 12.1484L31.7396 15.0147H17.7748C16.9043 13.5308 15.3059 12.5147 13.473 12.5147C10.7264 12.5147 8.47302 14.768 8.47302 17.5147C8.47302 20.2613 10.7264 22.5147 13.473 22.5147C16.2196 22.5147 18.473 20.2613 18.473 17.5147H31.7396L28.8734 20.3809C28.639 20.6159 28.5076 20.9344 28.5081 21.2663C28.5086 21.5983 28.6409 21.9164 28.8759 22.1508C29.111 22.3852 29.4295 22.5166 29.7614 22.5162C30.0933 22.5157 30.4115 22.3835 30.6459 22.1484L35.6459 17.1484C35.8802 16.914 36.0119 16.5961 36.0119 16.2647C36.0119 15.9332 35.8802 15.6153 35.6459 15.3809L30.6459 10.3809C30.4191 10.1487 30.1109 10.0139 29.7865 10.0049ZM13.473 15.0147C14.8685 15.0147 15.973 16.1191 15.973 17.5147C15.973 18.9102 14.8685 20.0147 13.473 20.0147C12.0775 20.0147 10.973 18.9102 10.973 17.5147C10.973 16.1191 12.0775 15.0147 13.473 15.0147Z" fill="#9c27b0"/>
    <g opacity="0.6">
      <path d="M23.491 12.4999L23.4813 1.24503C23.4813 1.08006 23.4486 0.916671 23.3851 0.764381C23.3217 0.612091 23.2288 0.473932 23.1117 0.357734C22.9946 0.241535 22.8555 0.149595 22.7028 0.0873481C22.55 0.0251017 22.3865 -0.00624105 22.2215 -0.00496758L19.7166 0.0150214C19.6043 0.0162752 19.4926 0.032751 19.3846 0.0638496L1.88947 5.04432C1.62818 5.11862 1.39827 5.27597 1.23441 5.49262C1.07054 5.70928 0.981628 5.97339 0.981262 6.24503V33.745C0.981285 34.0749 1.11166 34.3913 1.34396 34.6255C1.57627 34.8596 1.89168 34.9924 2.2215 34.995L4.71661 35.0201C4.83553 35.0206 4.9539 35.0041 5.06818 34.9712L22.5731 29.9567C22.8345 29.8824 23.0647 29.7247 23.2286 29.5078C23.3925 29.2909 23.4811 29.0266 23.4813 28.7548L23.4913 19.9999H20.9913L20.9813 27.8124L4.55548 32.5146L3.48126 32.5095V7.19215L19.9022 2.51441L20.9813 2.50449L20.9913 12.4995L23.491 12.4999Z" fill="#9c27b0"/>
    </g>
  </g>
</svg>
