<svg width="35" height="35" viewBox="0 0 35 35" fill="none" xmlns="http://www.w3.org/2000/svg">
<path d="M1.25 0C0.559672 7.5e-05 7e-05 0.559675 0 1.25V6.25C7e-05 6.94032 0.559672 7.49993 1.25 7.5H11.25C11.9403 7.49993 12.4999 6.94032 12.5 6.25V1.25C12.4999 0.559675 11.9403 7.5e-05 11.25 0H1.25ZM18.75 15C18.0597 15.0001 17.5001 15.5597 17.5 16.25V21.25C17.5001 21.9403 18.0597 22.4999 18.75 22.5H33.75C34.4403 22.4999 34.9999 21.9403 35 21.25V16.25C34.9999 15.5597 34.4403 15.0001 33.75 15H18.75ZM18.75 27.5C18.0597 27.5001 17.5001 28.0597 17.5 28.75V33.75C17.5001 34.4403 18.0597 34.9999 18.75 35H33.75C34.4403 34.9999 34.9999 34.4403 35 33.75V28.75C34.9999 28.0597 34.4403 27.5001 33.75 27.5H18.75Z" fill="white"/>
<path opacity="0.6" d="M5.00002 10V31.25C5.00005 31.5815 5.13176 31.8994 5.36617 32.1338C5.60058 32.3682 5.9185 32.5 6.25002 32.5H15V30H7.50002V20H15V17.5H7.50002V10H5.00002Z" fill="white"/>
</svg>
