<svg width="40" height="41" viewBox="0 0 40 41" fill="none" xmlns="http://www.w3.org/2000/svg">
<path d="M24.3603 0.509773C22.1251 0.555848 19.7884 1.44406 17.8662 3.36622L5.3662 15.8662C3.27153 17.9609 2.4204 20.9707 2.56835 23.9326C2.7163 26.8946 3.85658 29.8742 5.9912 32.0088C8.12154 34.1391 11.085 35.2955 14.043 35.4512C17.0009 35.6069 20.0164 34.7511 22.1338 32.6338L37.1338 17.6338C37.2537 17.5186 37.3495 17.3807 37.4155 17.228C37.4814 17.0753 37.5163 16.911 37.518 16.7448C37.5197 16.5785 37.4882 16.4135 37.4253 16.2595C37.3624 16.1056 37.2695 15.9657 37.1519 15.8481C37.0343 15.7305 36.8944 15.6376 36.7405 15.5747C36.5865 15.5118 36.4215 15.4803 36.2552 15.482C36.089 15.4837 35.9247 15.5185 35.772 15.5845C35.6193 15.6505 35.4814 15.7463 35.3662 15.8662L20.3662 30.8662C18.8584 32.374 16.5606 33.0816 14.1748 32.9561C11.789 32.8305 9.37845 31.8609 7.75878 30.2412C6.14341 28.6258 5.18313 26.2011 5.06347 23.8057C4.94382 21.4102 5.65799 19.1096 7.13378 17.6338L19.6338 5.1338C22.5962 2.17136 26.5306 2.62284 28.5205 4.51368C30.5115 6.40551 30.6782 10.5543 27.8662 13.3662L16.6162 24.6162C15.134 26.0984 13.8793 25.7368 13.0713 24.9287C12.2632 24.1207 11.9016 22.866 13.3838 21.3838L22.1338 12.6338C22.2537 12.5186 22.3495 12.3807 22.4155 12.228C22.4814 12.0753 22.5163 11.911 22.518 11.7448C22.5197 11.5785 22.4882 11.4135 22.4253 11.2595C22.3624 11.1056 22.2695 10.9657 22.1519 10.8481C22.0343 10.7305 21.8944 10.6376 21.7405 10.5747C21.5865 10.5118 21.4215 10.4803 21.2552 10.482C21.089 10.4837 20.9247 10.5185 20.772 10.5845C20.6193 10.6505 20.4814 10.7463 20.3662 10.8662L11.6162 19.6162C9.34837 21.8841 9.61176 25.0044 11.3037 26.6963C12.9956 28.3882 16.1159 28.6516 18.3838 26.3838L29.6338 15.1338C33.3423 11.4253 33.4334 5.72771 30.2441 2.69727C28.7292 1.25777 26.5956 0.463698 24.3603 0.509773Z" fill="white"/>
</svg>
