<svg width="36" height="41" viewBox="0 0 36 41" fill="none" xmlns="http://www.w3.org/2000/svg">
<g opacity="0.7">
<path d="M11.7462 18.0071C11.5796 18.0058 11.4145 18.0378 11.2604 18.1013C11.1063 18.1647 10.9664 18.2584 10.849 18.3767C10.7316 18.495 10.6392 18.6355 10.5769 18.79C10.5147 18.9446 10.4839 19.11 10.4865 19.2766L10.4915 22.6262C9.56059 22.807 8.69394 23.1757 7.93779 23.6956L5.12041 20.888C4.89482 20.657 4.58862 20.5223 4.26592 20.512C4.01464 20.5051 3.76708 20.5741 3.55563 20.7101C3.34417 20.846 3.17869 21.0425 3.08062 21.2739C2.98256 21.5054 2.95642 21.761 3.00586 22.0075C3.05529 22.254 3.17798 22.4798 3.35772 22.6555L6.1751 25.4632C5.65557 26.2155 5.28418 27.0758 5.10088 28.0022L1.73663 28.0122C1.41304 28.0247 1.1069 28.1622 0.8826 28.3957C0.658305 28.6293 0.53329 28.9408 0.533938 29.2646C0.534586 29.5885 0.660882 29.8994 0.88611 30.1321C1.11134 30.3648 1.41803 30.501 1.74167 30.5122L5.08639 30.5072C5.25563 31.4517 5.60857 32.3363 6.12642 33.1048L3.35787 35.8782C3.22704 35.9903 3.12069 36.1283 3.04568 36.2834C2.97067 36.4384 2.92857 36.6073 2.92193 36.7795C2.9153 36.9516 2.94438 37.1233 3.00723 37.2837C3.07008 37.4441 3.16541 37.5898 3.28723 37.7116C3.40904 37.8334 3.55468 37.9287 3.71508 37.9916C3.87548 38.0544 4.04708 38.0834 4.21923 38.0768C4.39138 38.0702 4.56036 38.0281 4.71545 37.953C4.87053 37.878 5.00848 37.7718 5.12056 37.6409L7.87935 34.887C8.65029 35.4294 9.53482 35.8148 10.4916 36.0003L10.4866 39.2523C10.4798 39.4202 10.5068 39.5879 10.5663 39.7451C10.6257 39.9024 10.7163 40.046 10.8325 40.1675C10.9487 40.289 11.0881 40.3858 11.2425 40.4521C11.397 40.5185 11.5633 40.5531 11.7314 40.5537C11.8995 40.5544 12.0659 40.5211 12.2209 40.456C12.3759 40.3909 12.5162 40.2952 12.6334 40.1746C12.7505 40.0541 12.8421 39.9112 12.9028 39.7544C12.9635 39.5977 12.9921 39.4303 12.9866 39.2622L12.9916 36.0054C13.9579 35.8302 14.8579 35.4649 15.6381 34.9263L18.3432 37.6412C18.4563 37.7682 18.5941 37.8709 18.7483 37.9428C18.9025 38.0148 19.0697 38.0544 19.2398 38.0595C19.4098 38.0645 19.5791 38.0348 19.7372 37.9721C19.8954 37.9095 20.0391 37.8152 20.1596 37.6951C20.28 37.575 20.3748 37.4315 20.4379 37.2735C20.501 37.1155 20.5311 36.9463 20.5266 36.7762C20.522 36.6062 20.4827 36.4389 20.4112 36.2845C20.3397 36.1301 20.2375 35.9919 20.1108 35.8785L17.4008 33.1539C17.9368 32.3731 18.307 31.4732 18.4799 30.5074H21.7465C22.0787 30.5074 22.3972 30.3754 22.6321 30.1406C22.867 29.9057 22.9989 29.5871 22.9989 29.255C22.9989 28.9228 22.867 28.6042 22.6321 28.3693C22.3972 28.1345 22.0787 28.0025 21.7465 28.0025H18.4653C18.2783 27.0561 17.8886 26.1833 17.352 25.4195L20.1108 22.6558C20.29 22.4824 20.4132 22.2594 20.4646 22.0154C20.516 21.7713 20.4933 21.5175 20.3993 21.2865C20.3053 21.0555 20.1444 20.8579 19.9373 20.7191C19.7301 20.5802 19.4861 20.5065 19.2367 20.5074C19.0699 20.5081 18.9048 20.5421 18.7514 20.6075C18.5979 20.6729 18.4592 20.7684 18.3432 20.8883L15.5698 23.6568C14.8061 23.1429 13.9292 22.7918 12.9916 22.6217L12.9816 19.2721C12.9854 18.9414 12.8582 18.6226 12.6276 18.3856C12.3969 18.1486 12.0818 18.0126 11.7511 18.0074C11.7494 18.0074 11.7479 18.0071 11.7462 18.0071ZM11.7412 26.2542C13.398 26.2542 14.7441 27.6002 14.7441 29.2571C14.7441 30.9139 13.398 32.2551 11.7412 32.2551C10.0844 32.2551 8.74314 30.9139 8.74314 29.2571C8.74314 27.6003 10.0844 26.2542 11.7412 26.2542Z" fill="white"/>
</g>
<path d="M24.2373 0.507607C24.0707 0.5063 23.9055 0.538294 23.7515 0.601753C23.5974 0.665213 23.4575 0.758896 23.3401 0.877174C23.2227 0.995451 23.1303 1.13598 23.068 1.29053C23.0058 1.44509 22.975 1.61053 22.9775 1.77713L22.9826 5.12673C22.0517 5.30748 21.185 5.67614 20.4289 6.19607L17.6115 3.38846C17.3859 3.15749 17.0797 3.02276 16.757 3.01248C16.5057 3.00559 16.2582 3.07462 16.0467 3.21054C15.8353 3.34647 15.6698 3.54297 15.5717 3.77443C15.4736 4.00588 15.4475 4.26153 15.4969 4.50799C15.5464 4.75446 15.6691 4.9803 15.8488 5.15603L18.6662 7.96364C18.1467 8.71601 17.7753 9.57622 17.592 10.5027L14.2277 10.5127C13.9041 10.5252 13.598 10.6626 13.3737 10.8962C13.1494 11.1298 13.0244 11.4413 13.025 11.7651C13.0257 12.089 13.152 12.3999 13.3772 12.6326C13.6024 12.8653 13.9091 13.0015 14.2328 13.0127L17.5775 13.0076C17.7467 13.9522 18.0997 14.8367 18.6175 15.6053L15.849 18.3787C15.7181 18.4908 15.6118 18.6288 15.5368 18.7838C15.4618 18.9389 15.4197 19.1078 15.413 19.28C15.4064 19.4521 15.4355 19.6238 15.4983 19.7842C15.5612 19.9446 15.6565 20.0902 15.7783 20.2121C15.9001 20.3339 16.0458 20.4292 16.2062 20.4921C16.3666 20.5549 16.5382 20.5839 16.7103 20.5773C16.8825 20.5707 17.0514 20.5285 17.2065 20.4535C17.3616 20.3785 17.4996 20.2722 17.6117 20.1414L20.3704 17.3875C21.1414 17.9299 22.0259 18.3153 22.9827 18.5008L22.9777 21.7527C22.9709 21.9207 22.9979 22.0884 23.0573 22.2456C23.1168 22.4028 23.2074 22.5465 23.3236 22.668C23.4398 22.7894 23.5792 22.8863 23.7336 22.9526C23.8881 23.019 24.0544 23.0536 24.2225 23.0542C24.3906 23.0549 24.557 23.0216 24.712 22.9565C24.867 22.8914 25.0073 22.7957 25.1244 22.6751C25.2416 22.5546 25.3332 22.4117 25.3939 22.2549C25.4546 22.0981 25.4831 21.9307 25.4777 21.7627L25.4827 18.5059C26.4477 18.3309 27.3448 17.9595 28.1243 17.4219L30.8343 20.1416C30.9474 20.2687 31.0852 20.3714 31.2394 20.4433C31.3936 20.5152 31.5608 20.5549 31.7309 20.56C31.9009 20.565 32.0701 20.5353 32.2283 20.4726C32.3865 20.41 32.5302 20.3157 32.6507 20.1956C32.7711 20.0755 32.8659 19.932 32.929 19.774C32.9921 19.616 33.0222 19.4468 33.0176 19.2767C33.0131 19.1066 32.9738 18.9394 32.9023 18.785C32.8308 18.6306 32.7286 18.4924 32.6018 18.379L29.8919 15.6544C30.4279 14.8736 30.7981 13.9737 30.971 13.0079H34.2376C34.5698 13.0079 34.8883 12.8759 35.1232 12.6411C35.3581 12.4062 35.49 12.0876 35.49 11.7554C35.49 11.4233 35.3581 11.1047 35.1232 10.8698C34.8883 10.6349 34.5698 10.503 34.2376 10.503H30.9563C30.7693 9.55663 30.3797 8.68377 29.8431 7.92L32.6018 5.15634C32.781 4.9829 32.9043 4.75988 32.9557 4.51585C33.0071 4.27182 32.9844 4.01794 32.8904 3.78694C32.7964 3.55594 32.6355 3.35837 32.4284 3.21954C32.2212 3.08072 31.9772 3.00698 31.7278 3.00791C31.561 3.00856 31.3959 3.04259 31.2424 3.108C31.089 3.17341 30.9503 3.26888 30.8343 3.38876L28.0608 6.15731C27.2971 5.64339 26.4202 5.29231 25.4827 5.12216L25.4727 1.77256C25.4765 1.44187 25.3493 1.12313 25.1187 0.8861C24.888 0.649075 24.5729 0.513087 24.2422 0.507912C24.2405 0.507915 24.239 0.50761 24.2373 0.507607ZM24.2323 8.75465C25.8891 8.75465 27.2352 10.1007 27.2352 11.7576C27.2352 13.4144 25.8891 14.7556 24.2323 14.7556C22.5755 14.7556 21.2342 13.4144 21.2342 11.7576C21.2342 10.1008 22.5755 8.75468 24.2323 8.75465Z" fill="white"/>
</svg>
