<svg width="35" height="36" viewBox="0 0 35 36" fill="none" xmlns="http://www.w3.org/2000/svg">
<path d="M1.25 18C0.91849 18 0.600548 17.8683 0.366135 17.6339C0.131721 17.3995 3.31461e-05 17.0815 0 16.75V9.25C3.31461e-05 8.91849 0.131721 8.60055 0.366135 8.36613C0.600548 8.13172 0.91849 8.00003 1.25 8H28.75C29.0815 8.00003 29.3995 8.13172 29.6339 8.36613C29.8683 8.60055 30 8.91849 30 9.25V16.75C30 17.0815 29.8683 17.3995 29.6339 17.6339C29.3995 17.8683 29.0815 18 28.75 18H1.25ZM2.5 15.5H27.5V10.5H2.5V15.5Z" fill="white"/>
<path d="M6.25 10.5C5.91849 10.5 5.60055 10.3683 5.36613 10.1339C5.13172 9.89945 5.00003 9.58151 5 9.25V1.75C5.00003 1.41849 5.13172 1.10055 5.36613 0.866135C5.60055 0.631721 5.91849 0.500033 6.25 0.5H33.75C34.0815 0.500033 34.3995 0.631721 34.6339 0.866135C34.8683 1.10055 35 1.41849 35 1.75V9.25C35 9.58151 34.8683 9.89945 34.6339 10.1339C34.3995 10.3683 34.0815 10.5 33.75 10.5H6.25ZM7.5 8H32.5V3H7.5V8Z" fill="white"/>
<path d="M6.25 25.5C5.91849 25.5 5.60057 25.6317 5.36615 25.8662C5.13174 26.1006 5.00003 26.4185 5 26.75V34.25C5.00003 34.5815 5.13174 34.8994 5.36615 35.1338C5.60057 35.3683 5.91849 35.5 6.25 35.5H33.75C34.0815 35.5 34.3994 35.3683 34.6338 35.1338C34.8683 34.8994 35 34.5815 35 34.25V26.75C35 26.4185 34.8683 26.1006 34.6338 25.8662C34.3994 25.6317 34.0815 25.5 33.75 25.5H6.25ZM7.5 28H32.5V33H7.5V28Z" fill="white"/>
</svg>
